<svg width="15" height="15" fill="none" xmlns="http://www.w3.org/2000/svg"><path fill-rule="evenodd" clip-rule="evenodd" d="M0 2.5c0-.265.113-.52.314-.707.2-.188.473-.293.757-.293H13.93c.284 0 .556.105.757.293a.967.967 0 01.314.707c0 .265-.113.52-.314.707-.2.188-.473.293-.757.293H1.07c-.284 0-.556-.105-.757-.293A.967.967 0 010 2.5zm0 5c0-.265.113-.52.314-.707.2-.188.473-.293.757-.293H13.93c.284 0 .556.105.757.293a.967.967 0 01.314.707c0 .265-.113.52-.314.707-.2.188-.473.293-.757.293H1.07c-.284 0-.556-.105-.757-.293A.967.967 0 010 7.5zm0 5c0-.265.113-.52.314-.707.2-.188.473-.293.757-.293H7.5c.284 0 .557.105.758.293a.97.97 0 01.313.707c0 .265-.112.52-.313.707a1.11 1.11 0 01-.758.293H1.071c-.284 0-.556-.105-.757-.293A.967.967 0 010 12.5z" fill="#fff"/></svg>