<svg width="20" height="20" fill="none" xmlns="http://www.w3.org/2000/svg"><path d="M.305 1.293A.626.626 0 000 1.797c0 .195.137.418.313.508.144.074.226.078 1.433.078h1.285l1.41 4.945 1.414 4.945-.113.227c-.195.387-.281.691-.281 1.016 0 .812.527 1.492 1.316 1.699.168.043.45.058 1.035.062.72.004.782.008.606.051-.324.078-.57.219-.824.469a1.724 1.724 0 000 2.465c.699.695 1.777.695 2.465.004a1.75 1.75 0 00.343-2.008c-.203-.434-.734-.852-1.195-.945-.094-.016 1.023-.032 2.57-.032 2.239 0 2.7.008 2.54.047-.325.078-.57.219-.825.469a1.724 1.724 0 000 2.465c.7.695 1.777.695 2.465.004.695-.7.695-1.774 0-2.47a1.618 1.618 0 00-.82-.468c-.168-.043-.043-.047.93-.05 1.046-.005 1.136-.008 1.277-.083a.617.617 0 00.312-.508.617.617 0 00-.312-.507c-.153-.078-.219-.078-5.203-.078-4.73 0-5.059-.004-5.188-.07-.316-.157-.394-.5-.207-.887l.106-.215h5.168c5.125 0 5.171 0 5.328-.078a.473.473 0 00.23-.247C17.676 12.395 20 4.254 20 4.121c0-.176-.145-.402-.313-.488-.152-.078-.214-.078-7.628-.078H4.582l-.262-.93c-.312-1.102-.363-1.215-.566-1.328-.149-.086-.18-.086-1.727-.086-1.492.004-1.586.008-1.722.082z" fill="#fff"/></svg>