<svg width="18" height="21" fill="none" xmlns="http://www.w3.org/2000/svg"><path d="M1.265 2.58C0 3.862 0 5.922 0 10.043v.729c0 4.12 0 6.18 1.265 7.46 1.266 1.28 3.302 1.28 7.375 1.28h.72c4.073 0 6.11 0 7.375-1.28C18 16.952 18 14.892 18 10.772v-.729c0-4.12 0-6.181-1.265-7.461C15.47 1.3 13.433 1.3 9.36 1.3h-.72c-4.073 0-6.11 0-7.375 1.28zm1.773 4.26h2.055c.067 3.475 1.582 4.947 2.782 5.25V6.84H9.81v2.997c1.185-.129 2.43-1.495 2.85-2.997h1.935a5.817 5.817 0 01-.927 2.167 5.742 5.742 0 01-1.705 1.612c.75.377 1.413.91 1.944 1.566.531.655.92 1.417 1.138 2.235h-2.13a3.752 3.752 0 00-1.148-1.829 3.683 3.683 0 00-1.957-.88v2.71h-.233c-4.102 0-6.442-2.846-6.54-7.581z" fill="#fff"/></svg>